<svg width="96" height="90" viewBox="0 0 96 90" fill="none" xmlns="http://www.w3.org/2000/svg">
<path d="M87.8669 40.1447H80.3633C79.4206 40.1447 78.6545 39.3807 78.6545 38.4359C78.6545 37.491 79.4185 36.7271 80.3633 36.7271H87.8669C88.8096 36.7271 89.5757 37.491 89.5757 38.4359C89.5757 39.3807 88.8117 40.1447 87.8669 40.1447Z" fill="#5E68A6"/>
<path d="M57.3255 70.6885C56.3828 70.6885 55.6167 69.9246 55.6167 68.9797V61.4762C55.6167 60.5334 56.3807 59.7673 57.3255 59.7673C58.2704 59.7673 59.0344 60.5313 59.0344 61.4762V68.9797C59.0344 69.9224 58.2704 70.6885 57.3255 70.6885Z" fill="#5E68A6"/>
<path d="M37.7603 83.2834H4.87326C3.93053 83.2834 3.16443 82.5195 3.16443 81.5746V72.7176C3.16443 66.4654 6.32034 60.7324 11.6086 57.3807C11.766 57.2807 11.7894 57.1168 11.7894 57.0296C11.7894 56.9423 11.766 56.7806 11.6064 56.6806C6.32034 53.3289 3.16443 47.5938 3.16443 41.3437V32.4867C3.16443 31.544 3.9284 30.7779 4.87326 30.7779H37.7603C38.703 30.7779 39.4691 31.5418 39.4691 32.4867V41.3437C39.4691 47.5959 36.3132 53.3289 31.0271 56.6806C30.8675 56.7806 30.8441 56.9445 30.8441 57.0296C30.8441 57.1147 30.8675 57.2807 31.0271 57.3807C36.3132 60.7324 39.4691 66.4675 39.4691 72.7176V81.5746C39.4691 82.5173 38.7051 83.2834 37.7603 83.2834ZM6.57996 79.8658H36.0536V72.7155C36.0536 67.6401 33.4914 62.9839 29.197 60.2642C28.0882 59.562 27.4285 58.3511 27.4285 57.0275C27.4285 55.7038 28.0882 54.4951 29.197 53.7928C33.4914 51.071 36.0536 46.417 36.0536 41.3415V34.1913H6.57996V41.3415C6.57996 46.417 9.14214 51.0731 13.4366 53.7928C14.5453 54.4972 15.205 55.7059 15.205 57.0275C15.205 58.349 14.5453 59.5598 13.4366 60.2642C9.14214 62.986 6.57996 67.6401 6.57996 72.7155V79.8658Z" fill="#5E68A6"/>
<path d="M38.6796 34.1912H3.95393C1.77267 34.1912 0 32.4185 0 30.2372V28.0134C0 25.8322 1.7748 24.0595 3.95393 24.0595H38.6796C40.8608 24.0595 42.6335 25.8322 42.6335 28.0134V30.2372C42.6335 32.4185 40.8587 34.1912 38.6796 34.1912ZM3.95393 27.4771C3.65813 27.4771 3.41553 27.7176 3.41553 28.0155V30.2394C3.41553 30.5352 3.656 30.7778 3.95393 30.7778H38.6796C38.9754 30.7778 39.218 30.5373 39.218 30.2394V28.0155C39.218 27.7197 38.9754 27.4771 38.6796 27.4771H3.95393Z" fill="#5E68A6"/>
<path d="M38.6796 89.9994H3.95393C1.77267 89.9994 0 88.2246 0 86.0454V83.8237C0 81.6425 1.7748 79.8677 3.95393 79.8677H38.6796C40.8608 79.8677 42.6335 81.6425 42.6335 83.8237V86.0454C42.6335 88.2267 40.8587 89.9994 38.6796 89.9994ZM3.95393 83.2832C3.65813 83.2832 3.41553 83.5258 3.41553 83.8216V86.0433C3.41553 86.3391 3.656 86.5817 3.95393 86.5817H38.6796C38.9754 86.5817 39.218 86.3412 39.218 86.0433V83.8216C39.218 83.5237 38.9754 83.2832 38.6796 83.2832H3.95393Z" fill="#5E68A6"/>
<path d="M21.9786 41.7834H4.87326C3.93053 41.7834 3.16443 41.0194 3.16443 40.0745C3.16443 39.1297 3.9284 38.3657 4.87326 38.3657H21.9786C22.9213 38.3657 23.6874 39.1297 23.6874 40.0745C23.6874 41.0194 22.9234 41.7834 21.9786 41.7834Z" fill="#5E68A6"/>
<path d="M37.7603 75.6896H19.7676C18.8248 75.6896 18.0587 74.9257 18.0587 73.9808C18.0587 73.0359 18.8227 72.272 19.7676 72.272H37.7603C38.703 72.272 39.4691 73.0359 39.4691 73.9808C39.4691 74.9257 38.7052 75.6896 37.7603 75.6896Z" fill="#5E68A6"/>
<path d="M12.8641 75.6896H4.87326C3.93053 75.6896 3.16443 74.9257 3.16443 73.9808C3.16443 73.0359 3.9284 72.272 4.87326 72.272H12.8641C13.8068 72.272 14.5729 73.0359 14.5729 73.9808C14.5729 74.9257 13.809 75.6896 12.8641 75.6896Z" fill="#5E68A6"/>
<path d="M21.3169 66.8756C20.3742 66.8756 19.6081 66.1116 19.6081 65.1667V51.7259C19.6081 50.7832 20.372 50.0171 21.3169 50.0171C22.2618 50.0171 23.0257 50.7811 23.0257 51.7259V65.1667C23.0257 66.1095 22.2618 66.8756 21.3169 66.8756Z" fill="#5E68A6"/>
<path d="M26.567 69.8769C25.6243 69.8769 24.8582 69.113 24.8582 68.1681V63.0033C24.8582 62.0606 25.6221 61.2945 26.567 61.2945C27.5118 61.2945 28.2758 62.0585 28.2758 63.0033V68.1681C28.2758 69.1108 27.5118 69.8769 26.567 69.8769Z" fill="#5E68A6"/>
<path d="M16.0668 69.8769C15.1241 69.8769 14.358 69.113 14.358 68.1681V63.0033C14.358 62.0606 15.122 61.2945 16.0668 61.2945C17.0117 61.2945 17.7757 62.0585 17.7757 63.0033V68.1681C17.7757 69.1108 17.0117 69.8769 16.0668 69.8769Z" fill="#5E68A6"/>
<path d="M57.3255 17.109C56.3828 17.109 55.6167 16.3451 55.6167 15.4002V7.89667C55.6167 6.95394 56.3807 6.18784 57.3255 6.18784C58.2704 6.18784 59.0344 6.95181 59.0344 7.89667V15.4002C59.0344 16.3429 58.2704 17.109 57.3255 17.109Z" fill="#5E68A6"/>
<path d="M57.3255 14.0616C56.3828 14.0616 55.6167 13.2977 55.6167 12.3528V7.89667C55.6167 6.95394 56.3807 6.18784 57.3255 6.18784C58.2704 6.18784 59.0344 6.95181 59.0344 7.89667V12.3528C59.0344 13.2955 58.2704 14.0616 57.3255 14.0616Z" fill="#5E68A6"/>
<path d="M75.7715 21.7001C75.3353 21.7001 74.8969 21.5342 74.5628 21.2001C73.8946 20.5318 73.8946 19.4508 74.5628 18.7847L77.7144 15.6331C78.3805 14.9648 79.4637 14.9648 80.1298 15.6331C80.798 16.3013 80.798 17.3823 80.1298 18.0484L76.9781 21.2001C76.6461 21.5342 76.2078 21.7001 75.7694 21.7001H75.7715Z" fill="#5E68A6"/>
<path d="M78.9232 61.7445C78.4869 61.7445 78.0485 61.5785 77.7144 61.2444L74.5628 58.0927C73.8946 57.4245 73.8946 56.3435 74.5628 55.6774C75.231 55.0092 76.312 55.0092 76.9781 55.6774L80.1298 58.829C80.798 59.4973 80.798 60.5783 80.1298 61.2444C79.7957 61.5785 79.3594 61.7445 78.921 61.7445H78.9232Z" fill="#5E68A6"/>
<path d="M38.0559 59.4129C37.6197 59.4129 37.1813 59.2469 36.8472 58.9128C36.179 58.2446 36.179 57.1636 36.8472 56.4975L37.6708 55.6739C38.339 55.0057 39.42 55.0057 40.0861 55.6739C40.7543 56.3421 40.7543 57.4232 40.0861 58.0893L39.2625 58.9128C38.9284 59.2469 38.4922 59.4129 38.0538 59.4129H38.0559Z" fill="#5E68A6"/>
<path d="M38.8801 21.7001C38.4439 21.7001 38.0055 21.5342 37.6714 21.2001L34.5197 18.0484C33.8515 17.3802 33.8515 16.2991 34.5197 15.6331C35.188 14.9648 36.269 14.9648 36.9351 15.6331L40.0867 18.7847C40.755 19.4529 40.755 20.534 40.0867 21.2001C39.7526 21.5342 39.3164 21.7001 38.878 21.7001H38.8801Z" fill="#5E68A6"/>
<path d="M57.4173 76.9253C53.2421 76.9253 49.0222 76.2422 44.9001 74.8398C44.0063 74.5355 43.5296 73.5651 43.834 72.6713C44.1383 71.7797 45.1108 71.3051 46.0024 71.6052C58.7559 75.9507 72.5861 72.7309 82.1028 63.2142C95.7649 49.5521 95.7649 27.3245 82.1028 13.6603C68.4407 0.000266267 46.211 0.000266267 32.5489 13.6603C30.8677 15.3414 29.3568 17.1907 28.0587 19.1592C27.5394 19.9487 26.4775 20.1657 25.6923 19.6444C24.9049 19.1251 24.6878 18.0654 25.2071 17.278C26.6329 15.118 28.2885 13.0878 30.1335 11.2449C45.1278 -3.74937 69.526 -3.74724 84.5182 11.2449C99.5103 26.2392 99.5103 50.6353 84.5182 65.6296C77.1487 72.999 67.4213 76.9253 57.4173 76.9253Z" fill="#5E68A6"/>
<path d="M37.7602 41.7834H29.5012C28.5585 41.7834 27.7924 41.0194 27.7924 40.0745C27.7924 39.1297 28.5563 38.3657 29.5012 38.3657H37.7602C38.7029 38.3657 39.469 39.1297 39.469 40.0745C39.469 41.0194 38.705 41.7834 37.7602 41.7834Z" fill="#5E68A6"/>
<path d="M67.4063 50.2281C66.97 50.2281 66.5316 50.0621 66.1975 49.728L56.1148 39.6453C55.7956 39.3239 55.6147 38.8898 55.6147 38.4365V29.9371C55.6147 28.9943 56.3787 28.2282 57.3235 28.2282C58.2684 28.2282 59.0323 28.9922 59.0323 29.9371V37.7279L68.6129 47.3084C69.2811 47.9766 69.2811 49.0555 68.6129 49.7238C68.2788 50.0579 67.8425 50.2238 67.4041 50.2238L67.4063 50.2281Z" fill="#5E68A6"/>
<path d="M62.3672 90.0006H14.3667C13.424 90.0006 12.6579 89.2366 12.6579 88.2917C12.6579 87.3469 13.4219 86.5829 14.3667 86.5829H62.3672C63.3099 86.5829 64.076 87.3469 64.076 88.2917C64.076 89.2366 63.3121 90.0006 62.3672 90.0006Z" fill="#5E68A6"/>
</svg>
