<svg width="93" height="112" viewBox="0 0 93 112" fill="none" xmlns="http://www.w3.org/2000/svg">
<path d="M50.2018 76.8478C49.4818 76.8478 48.8984 76.2663 48.8984 75.5486V69.2335C48.8984 68.5755 49.3919 68.0211 50.0473 67.9437C51.9959 67.7122 53.7179 67.2875 55.1656 66.6827C57.4316 65.741 59.1302 64.3456 60.3596 62.4155C61.5844 60.4993 62.2052 58.4179 62.2052 56.2283C62.2052 53.7839 61.6949 51.7249 60.6892 50.1074C59.6648 48.4536 58.279 47.1842 56.454 46.2257C54.5419 45.2242 51.4978 44.2274 47.4086 43.2614C42.8934 42.1992 40.1929 41.2061 38.911 40.1375C37.7649 39.1733 37.1609 37.931 37.1609 36.5441C37.1609 35.0199 37.8239 33.7385 39.0768 32.8368C40.7164 31.6496 42.9627 31.0458 45.7512 31.0448C48.4761 31.0448 50.5932 31.6244 52.0437 32.7687C53.2872 33.7525 54.1674 35.2337 54.6665 37.1825L60.8812 36.9072C60.5254 33.9363 59.295 31.5731 57.1404 29.7111C55.4062 28.2112 53.0072 27.2265 50.0108 26.7841C49.3713 26.6898 48.8984 26.1429 48.8984 25.4989V20.3926H43.2446V25.4606C43.2446 26.1065 42.768 26.6544 42.1265 26.7468C40.5675 26.9708 39.1479 27.3525 37.9082 27.8826C35.8276 28.7675 34.2217 30.0611 33.1327 31.7271C32.024 33.4276 31.4847 35.1954 31.4847 37.1302C31.4847 40.1515 32.6355 42.6491 35.0017 44.765C36.7115 46.2882 39.8137 47.6135 44.2193 48.7009C47.8206 49.5913 50.1925 50.2297 51.2674 50.5993C51.2712 50.6003 51.2749 50.6021 51.2796 50.6031C53.0007 51.2135 54.2039 51.9461 54.9586 52.8449C55.7527 53.7988 56.1525 54.9459 56.1525 56.2591C56.1525 58.2331 55.2798 59.957 53.5597 61.3841C51.9145 62.7552 49.5117 63.4505 46.4226 63.4505C43.3335 63.4505 41.0862 62.6787 39.2996 61.1573C37.7527 59.8385 36.6544 57.8915 36.0279 55.3603L30.1204 55.9334C30.7842 59.7246 32.3199 62.6731 34.6936 64.7115C36.5617 66.3196 39.0655 67.3724 42.1387 67.8401C42.7754 67.9371 43.2455 68.4822 43.2455 69.1243V75.5476C43.2455 76.2654 42.6621 76.8468 41.9421 76.8468C41.222 76.8468 40.6386 76.2654 40.6386 75.5476V70.2136C37.5673 69.5938 34.9979 68.4075 32.9913 66.679C29.8404 63.9732 27.9395 60.0177 27.3403 54.9226C27.3 54.5763 27.4002 54.2272 27.6202 53.9556C27.8403 53.684 28.1605 53.5123 28.5089 53.4778L36.9353 52.6601C37.6132 52.5939 38.2256 53.0577 38.3445 53.7251C38.794 56.2302 39.6854 58.0651 40.9945 59.1814C42.2951 60.2893 44.122 60.8512 46.4236 60.8512C48.8853 60.8512 50.7253 60.3584 51.891 59.3877C53.0053 58.4627 53.5466 57.4398 53.5466 56.2582C53.5466 55.5572 53.3537 54.9851 52.9566 54.5072C52.657 54.1507 51.9688 53.6047 50.4125 53.0521C49.7196 52.8141 47.9733 52.3036 43.5929 51.2219C38.7032 50.0141 35.3238 48.5357 33.2628 46.6998C30.3526 44.0976 28.8778 40.8776 28.8778 37.1293C28.8778 34.7101 29.5744 32.415 30.9481 30.3084C32.3255 28.2019 34.3219 26.5825 36.8838 25.4924C38.0234 25.0051 39.2828 24.6271 40.6377 24.363V19.0933C40.6377 18.3756 41.2211 17.7941 41.9411 17.7941H50.2018C50.9219 17.7941 51.5053 18.3756 51.5053 19.0933V24.405C54.496 24.9949 56.9624 26.1177 58.8483 27.7482C61.8391 30.3327 63.4319 33.815 63.5845 38.1C63.6098 38.8121 63.0545 39.4123 62.34 39.444L53.6777 39.8276C53.0194 39.8584 52.4435 39.3927 52.3349 38.7449C52.0203 36.8838 51.3779 35.5585 50.4256 34.8053C49.4481 34.0343 47.8759 33.6433 45.7522 33.6433C43.5264 33.6433 41.7951 34.0801 40.6068 34.9415C40.0263 35.3587 39.7688 35.8525 39.7688 36.5441C39.7688 37.1676 40.0291 37.6772 40.589 38.1485C41.1096 38.5825 42.7717 39.5009 48.0088 40.7329C52.3723 41.7633 55.5307 42.8078 57.6675 43.9259C59.8867 45.0917 61.649 46.711 62.9056 48.7401C64.1697 50.7729 64.8121 53.2929 64.8121 56.2283C64.8121 58.9201 64.0536 61.4709 62.5582 63.8099C61.0544 66.1694 58.9045 67.9427 56.1693 69.0795C54.7985 69.6526 53.2329 70.0829 51.5043 70.3619V75.5476C51.5043 76.2654 50.921 76.8468 50.2009 76.8468L50.2018 76.8478Z" fill="#5E68A6"/>
<path d="M46.1975 112C45.852 112 45.5205 111.863 45.2761 111.619L35.8524 102.221C35.4798 101.85 35.3683 101.291 35.5706 100.805C35.7728 100.32 36.2476 100.004 36.7748 100.004H40.4641V86.7316C40.4641 86.0139 41.0474 85.4324 41.7675 85.4324C42.4876 85.4324 43.0709 86.0139 43.0709 86.7316V101.303C43.0709 102.021 42.4876 102.602 41.7675 102.602H39.92L46.1975 108.863L52.4787 102.602H50.634C49.914 102.602 49.3306 102.021 49.3306 101.303V86.7316C49.3306 86.0139 49.914 85.4324 50.634 85.4324C51.3541 85.4324 51.9375 86.0139 51.9375 86.7316V100.004H55.6249C56.1521 100.004 56.6278 100.32 56.8291 100.805C57.0304 101.291 56.919 101.85 56.5463 102.221L47.1189 111.619C46.8745 111.863 46.543 112 46.1975 112Z" fill="#5E68A6"/>
<path d="M69.0645 103.526C68.719 103.526 68.3875 103.389 68.1431 103.145L58.7195 93.7471C58.3468 93.3757 58.2354 92.8166 58.4376 92.3312C58.6399 91.8459 59.1146 91.5295 59.6418 91.5295H63.3311V71.9937C63.3311 71.2759 63.9145 70.6944 64.6345 70.6944C65.3546 70.6944 65.938 71.2759 65.938 71.9937V92.8287C65.938 93.5465 65.3546 94.1279 64.6345 94.1279H62.788L69.0655 100.39L75.3467 94.1279H73.502C72.7819 94.1279 72.1986 93.5465 72.1986 92.8287V64.7332C72.1986 64.0154 72.7819 63.434 73.502 63.434C74.2221 63.434 74.8054 64.0154 74.8054 64.7332V91.5295H78.4929C79.0201 91.5295 79.4957 91.8459 79.6971 92.3312C79.8984 92.8166 79.7869 93.3757 79.4143 93.7471L69.9869 103.145C69.7425 103.389 69.411 103.526 69.0655 103.526H69.0645Z" fill="#5E68A6"/>
<path d="M23.3313 103.526C22.9858 103.526 22.6543 103.389 22.4099 103.145L12.9862 93.7471C12.6135 93.3757 12.5021 92.8166 12.7044 92.3312C12.9066 91.8459 13.3814 91.5295 13.9086 91.5295H17.5979V64.7332C17.5979 64.0154 18.1812 63.434 18.9013 63.434C19.6214 63.434 20.2047 64.0154 20.2047 64.7332V92.8287C20.2047 93.5465 19.6214 94.1279 18.9013 94.1279H17.0548L23.3332 100.39L29.6153 94.1279H27.7697C27.0496 94.1279 26.4663 93.5465 26.4663 92.8287V71.9937C26.4663 71.2759 27.0496 70.6944 27.7697 70.6944C28.4898 70.6944 29.0731 71.2759 29.0731 71.9937V91.5295H32.7624C33.2896 91.5295 33.7653 91.8459 33.9666 92.3312C34.1679 92.8166 34.0565 93.3757 33.6838 93.7471L24.2545 103.145C24.0102 103.389 23.6787 103.526 23.3332 103.526H23.3313Z" fill="#5E68A6"/>
<path d="M46.0715 83.1601C39.3886 83.1601 32.8302 81.3792 27.1052 78.0108C26.4853 77.6459 26.2793 76.8497 26.6455 76.2318C27.0116 75.614 27.8103 75.4086 28.4302 75.7736C33.7535 78.9059 39.854 80.5626 46.0705 80.5626C52.2871 80.5626 58.5749 78.8555 63.9609 75.6261C64.578 75.2556 65.3786 75.4544 65.7494 76.0694C66.1202 76.6845 65.9217 77.4825 65.3046 77.8521C59.5141 81.3251 52.863 83.161 46.0705 83.161L46.0715 83.1601ZM18.8998 82.6887C18.6235 82.6887 18.3454 82.6019 18.1095 82.4218C12.6036 78.2245 8.04533 72.7561 4.9272 66.6063C1.65738 60.1578 0 53.1988 0 45.9224C0 39.7231 1.21822 33.7087 3.62096 28.047C5.94129 22.5785 9.26355 17.6673 13.4941 13.4504C17.7246 9.23358 22.6518 5.92207 28.138 3.60924C33.819 1.21428 39.8521 0 46.0715 0C52.2909 0 58.3249 1.21428 64.0049 3.60924C69.4911 5.92207 74.4183 9.23358 78.6489 13.4504C82.8794 17.6673 86.2017 22.5785 88.522 28.047C90.9247 33.7096 92.1429 39.7241 92.1429 45.9224C92.1429 53.139 90.5108 60.0476 87.2916 66.4551C84.2222 72.5647 79.7304 78.0145 74.2994 82.2155C73.731 82.6561 72.9117 82.5524 72.4707 81.9859C72.0296 81.4194 72.1326 80.6027 72.701 80.1631C83.4 71.8862 89.5351 59.4055 89.5351 45.9224C89.5351 22.0335 70.037 2.59843 46.0705 2.59843C22.104 2.59843 2.60687 22.0335 2.60687 45.9224C2.60687 59.5296 8.83469 72.0813 19.6929 80.3572C20.265 80.7931 20.3736 81.6088 19.9363 82.1782C19.6798 82.5123 19.2921 82.6887 18.8998 82.6887ZM13.5503 62.7581C13.0643 62.7581 12.5989 62.4865 12.3742 62.0207C9.94335 56.976 8.71109 51.5598 8.71109 45.9224C8.71109 40.8954 9.69896 36.0187 11.6476 31.4266C13.5297 26.9923 16.2227 23.0097 19.6536 19.59C23.0844 16.1702 27.079 13.4859 31.5286 11.6099C36.1356 9.66758 41.0282 8.6829 46.0705 8.6829C51.1129 8.6829 56.0064 9.66758 60.6124 11.6099C65.0611 13.4859 69.0566 16.1702 72.4875 19.59C75.9184 23.0097 78.6123 26.9914 80.4935 31.4266C82.4421 36.0187 83.43 40.8954 83.43 45.9224C83.43 51.5598 82.1977 56.976 79.7669 62.0207C79.4551 62.6675 78.6769 62.9401 78.028 62.6293C77.3791 62.3185 77.1057 61.5429 77.4175 60.8961C79.6779 56.2051 80.8231 51.1678 80.8231 45.9224C80.8231 26.8215 65.2334 11.2823 46.0705 11.2823C26.9076 11.2823 11.3189 26.8215 11.3189 45.9224C11.3189 51.1669 12.465 56.2051 14.7245 60.8961C15.0363 61.5429 14.7629 62.3194 14.114 62.6293C13.9323 62.7161 13.7394 62.7581 13.5503 62.7581Z" fill="#5E68A6"/>
</svg>
