<svg width="105" height="104" viewBox="0 0 105 104" fill="none" xmlns="http://www.w3.org/2000/svg">
<path d="M51.9849 15.5422C31.7935 15.5422 15.3879 31.9478 15.3879 52.1392C15.3879 72.3306 31.7935 88.7361 51.9849 88.7361C72.1763 88.7361 88.5818 72.3306 88.5818 52.1392C88.5818 31.9478 72.1763 15.5422 51.9849 15.5422ZM51.9849 85.5812C33.5287 85.5812 18.5428 70.5954 18.5428 52.1392C18.5428 33.683 33.5287 18.6971 51.9849 18.6971C70.4411 18.6971 85.4269 33.683 85.4269 52.1392C85.4269 70.5954 70.4411 85.5812 51.9849 85.5812Z" fill="#5E68A6"/>
<path d="M53.5619 46.1447V32.8941C53.5619 31.9476 52.9309 31.3167 51.9844 31.3167C51.0379 31.3167 50.407 31.9476 50.407 32.8941V46.1447C47.883 46.9334 45.8323 49.2996 45.8323 52.139C45.8323 53.2433 46.1478 54.1897 46.6211 55.1362L37.7873 63.8122C37.1563 64.4432 37.1563 65.3897 37.7873 66.0206C38.4183 66.6516 39.3648 66.6516 39.9958 66.0206L48.8295 57.5024C49.776 58.1334 50.8802 58.4489 51.9844 58.4489C55.2971 58.4489 58.1365 55.6094 58.1365 52.2968C58.1365 49.2996 56.0858 46.9334 53.5619 46.1447ZM51.9844 55.1362C50.407 55.1362 48.9872 53.7165 48.9872 52.139C48.9872 50.4038 50.2492 49.1419 51.9844 49.1419C53.5619 49.1419 54.9816 50.5616 54.9816 52.139C54.9816 53.8742 53.5619 55.1362 51.9844 55.1362Z" fill="#5E68A6"/>
<path d="M51.9847 28.6392C52.9312 28.6392 53.5621 28.0082 53.5621 27.0618V22.9604C53.5621 22.0139 52.9312 21.3829 51.9847 21.3829C51.0382 21.3829 50.4072 22.0139 50.4072 22.9604V27.0618C50.4072 27.8505 51.0382 28.6392 51.9847 28.6392Z" fill="#5E68A6"/>
<path d="M51.9847 75.6447C51.0382 75.6447 50.4072 76.2756 50.4072 77.2221V81.3235C50.4072 82.27 51.0382 82.9009 51.9847 82.9009C52.9312 82.9009 53.5621 82.27 53.5621 81.3235V77.2221C53.5621 76.4334 52.9312 75.6447 51.9847 75.6447Z" fill="#5E68A6"/>
<path d="M75.4891 52.1426C75.4891 53.0891 76.1201 53.7201 77.0666 53.7201H81.168C82.1144 53.7201 82.7454 53.0891 82.7454 52.1426C82.7454 51.1962 82.1144 50.5652 81.168 50.5652H77.0666C76.2779 50.5652 75.4891 51.1962 75.4891 52.1426Z" fill="#5E68A6"/>
<path d="M28.4816 52.1426C28.4816 51.1962 27.8506 50.5652 26.9042 50.5652H22.8028C21.8563 50.5652 21.2253 51.1962 21.2253 52.1426C21.2253 53.0891 21.8563 53.7201 22.8028 53.7201H26.9042C27.6929 53.7201 28.4816 53.0891 28.4816 52.1426Z" fill="#5E68A6"/>
<path d="M63.9736 31.9518C64.7623 32.425 65.7088 32.1095 66.182 31.3208L68.2327 27.8504C68.7059 27.0617 68.3904 26.1152 67.6017 25.642C66.813 25.1687 65.8665 25.4842 65.3933 26.2729L63.3426 29.7433C62.8694 30.5321 63.1848 31.4785 63.9736 31.9518Z" fill="#5E68A6"/>
<path d="M39.9961 72.3317C39.2073 71.8584 38.2609 72.1739 37.7876 72.9626L35.7369 76.433C35.2637 77.2218 35.5792 78.1682 36.3679 78.6415C37.1566 79.1147 38.1031 78.7992 38.5764 78.0105L40.627 74.5401C41.1003 73.7514 40.7848 72.8049 39.9961 72.3317Z" fill="#5E68A6"/>
<path d="M77.8545 65.5496L74.3842 63.499C73.5954 63.0257 72.649 63.3412 72.1757 64.1299C71.7025 64.9187 72.018 65.8651 72.8067 66.3384L76.2771 68.3891C77.0658 68.8623 78.0123 68.5468 78.4855 67.7581C78.9588 66.9694 78.6433 66.0229 77.8545 65.5496Z" fill="#5E68A6"/>
<path d="M26.115 38.7346L29.5854 40.7852C30.3741 41.2585 31.3206 40.943 31.7938 40.1543C32.2671 39.3655 31.9516 38.4191 31.1628 37.9458L27.6924 35.8951C26.9037 35.4219 25.9572 35.7374 25.484 36.5261C25.0108 37.3148 25.3263 38.2613 26.115 38.7346Z" fill="#5E68A6"/>
<path d="M72.018 39.8352C72.4913 40.6239 73.4377 40.7817 74.2264 40.3084L77.6968 38.2577C78.4856 37.7845 78.6433 36.838 78.1701 36.0493C77.6968 35.2606 76.7504 35.1028 75.9617 35.5761L72.4913 37.6268C71.8603 38.2577 71.5448 39.2042 72.018 39.8352Z" fill="#5E68A6"/>
<path d="M29.7423 63.8124L26.2719 65.8631C25.4832 66.3363 25.3254 67.2828 25.7987 68.0715C26.2719 68.8602 27.2184 69.018 28.0071 68.5447L31.4775 66.4941C32.2662 66.0208 32.424 65.0744 31.9507 64.2856C31.4775 63.6546 30.531 63.3392 29.7423 63.8124Z" fill="#5E68A6"/>
<path d="M66.3393 72.8068C65.8661 72.0181 64.9196 71.8603 64.1309 72.3336C63.3422 72.8068 63.1844 73.7533 63.6577 74.542L65.7084 78.0124C66.1816 78.8011 67.1281 78.9589 67.9168 78.4856C68.7055 78.0124 68.8633 77.0659 68.39 76.2772L66.3393 72.8068Z" fill="#5E68A6"/>
<path d="M39.6808 32.1071C40.4696 31.6339 40.6273 30.6874 40.1541 29.8987L38.1034 26.4283C37.6301 25.6395 36.6837 25.4818 35.8949 25.955C35.1062 26.4283 34.9485 27.3747 35.4217 28.1635L37.4724 31.6339C38.1034 32.2649 39.0499 32.5803 39.6808 32.1071Z" fill="#5E68A6"/>
<path d="M7.97346 53.4028L13.6523 47.724C14.2833 47.093 14.2833 46.1465 13.6523 45.5155C13.0213 44.8845 12.0748 44.8845 11.4439 45.5155L8.60444 48.3549C10.3396 28.479 25.01 12.389 44.7281 9.07634C45.5169 8.91859 46.1478 8.12986 45.9901 7.18339C45.8324 6.39467 45.0436 5.76368 44.0972 5.92143C22.9593 9.54957 7.18473 27.0593 5.44953 48.1972L2.76786 45.0423C2.13688 44.4113 1.19041 44.2536 0.559428 44.8845C-0.0715537 45.5155 -0.229299 46.462 0.401682 47.093L5.76503 53.245C6.23826 53.876 7.34248 54.0338 7.97346 53.4028Z" fill="#5E68A6"/>
<path d="M53.0889 96.4686L47.41 90.7897C46.779 90.1588 45.8326 90.1588 45.2016 90.7897C44.5706 91.4207 44.5706 92.3672 45.2016 92.9982L48.041 95.8376C28.3228 93.9447 11.9173 78.6434 8.92015 58.7674C8.76241 57.9787 7.97368 57.3477 7.18496 57.5055C6.23848 57.6632 5.6075 58.4519 5.76525 59.2407C8.92015 80.5363 26.4299 96.7841 47.41 98.8348L44.0974 101.201C43.4664 101.674 43.3086 102.778 43.7819 103.409C44.2551 104.04 45.3593 104.198 45.9903 103.725L52.7734 98.677C53.0889 98.3615 53.4043 97.8883 53.4043 97.4151C53.5621 97.2573 53.4044 96.7841 53.0889 96.4686Z" fill="#5E68A6"/>
<path d="M103.726 57.3469L98.3626 51.1948C98.0471 50.8793 97.7316 50.7216 97.2583 50.7216C96.7851 50.7216 96.4696 50.8793 96.1541 51.1948L90.4753 56.8736C89.8443 57.5046 89.8443 58.4511 90.4753 59.0821C91.1063 59.713 92.0527 59.713 92.6837 59.0821L95.5231 56.2426C93.7879 76.2763 78.1711 92.9973 58.1375 95.679C57.3488 95.8367 56.7178 96.6255 56.7178 97.4142C56.8755 98.3607 57.6642 98.8339 58.453 98.8339C80.2218 95.8367 96.7851 77.8538 98.678 56.2426L101.517 59.3976C102.148 60.0285 103.095 60.1863 103.726 59.5553C104.199 58.9243 104.199 57.9778 103.726 57.3469Z" fill="#5E68A6"/>
<path d="M50.8806 7.97346L56.5594 13.6523C57.1904 14.2833 58.1369 14.2833 58.7679 13.6523C59.3989 13.0213 59.3989 12.0748 58.7679 11.4439L55.9285 8.60444C75.8044 10.4974 92.2099 25.9564 95.0493 45.9901C95.2071 46.7788 95.9958 47.4098 96.7845 47.2521C97.5732 47.0943 98.2042 46.3056 98.0465 45.5169C95.2071 23.9057 77.3818 7.34248 56.0862 5.44953L59.2411 2.76786C59.8721 2.13688 60.0298 1.19041 59.3989 0.559428C58.7679 -0.0715537 57.8214 -0.229299 57.1904 0.401682L51.0384 5.60728C50.2496 6.23826 50.0919 7.34248 50.8806 7.97346Z" fill="#5E68A6"/>
</svg>
